<svg width="12" height="14" viewBox="0 0 12 14" fill="none" xmlns="http://www.w3.org/2000/svg">
<path d="M4.67468 0C4.12744 0 3.67639 0.379531 3.67639 0.84V1.4H1.07669C1.03509 1.39344 0.993499 1.39344 0.951903 1.4H0.348772C0.338373 1.4 0.327974 1.4 0.317575 1.4C0.134296 1.40766 -0.00868771 1.53891 0.000411337 1.69313C0.00951039 1.84734 0.165493 1.96766 0.348772 1.96H0.712731L1.90859 13.3C1.95019 13.6916 2.34664 14 2.81329 14H9.19817C9.66481 14 10.0613 13.6916 10.1029 13.3L11.2987 1.96H11.6627C11.7823 1.96109 11.8941 1.90859 11.9552 1.82109C12.0149 1.73359 12.0149 1.62641 11.9552 1.53891C11.8941 1.45141 11.7823 1.39891 11.6627 1.4H8.33507V0.84C8.33507 0.379531 7.88402 0 7.33678 0H4.67468ZM4.67468 0.56H7.33678C7.52396 0.56 7.66954 0.6825 7.66954 0.84V1.4H4.34192V0.84C4.34192 0.6825 4.4875 0.56 4.67468 0.56ZM1.37825 1.96H10.6332L9.43734 13.2563C9.42694 13.3536 9.30346 13.44 9.19817 13.44H2.81329C2.708 13.44 2.58452 13.3536 2.57412 13.2563L1.37825 1.96ZM3.97796 2.79125C3.96366 2.79344 3.94936 2.79672 3.93636 2.8C3.78168 2.82953 3.67249 2.94656 3.67639 3.08V12.32C3.67509 12.4206 3.73749 12.5147 3.84148 12.5661C3.94546 12.6164 4.07285 12.6164 4.17684 12.5661C4.28083 12.5147 4.34322 12.4206 4.34192 12.32V3.08C4.34582 2.99906 4.30682 2.92141 4.23793 2.86672C4.16774 2.81094 4.07285 2.78359 3.97796 2.79125ZM5.97453 2.79125C5.96024 2.79344 5.94594 2.79672 5.93294 2.8C5.77826 2.82953 5.66907 2.94656 5.67297 3.08V12.32C5.67167 12.4206 5.73406 12.5147 5.83805 12.5661C5.94204 12.6164 6.06942 12.6164 6.17341 12.5661C6.2774 12.5147 6.33979 12.4206 6.33849 12.32V3.08C6.34239 2.99906 6.3034 2.92141 6.2345 2.86672C6.16431 2.81094 6.06942 2.78359 5.97453 2.79125ZM7.97111 2.79125C7.95681 2.79344 7.94251 2.79672 7.92951 2.8C7.77483 2.82953 7.66564 2.94656 7.66954 3.08V12.32C7.66824 12.4206 7.73063 12.5147 7.83462 12.5661C7.93861 12.6164 8.066 12.6164 8.16998 12.5661C8.27397 12.5147 8.33637 12.4206 8.33507 12.32V3.08C8.33897 2.99906 8.29997 2.92141 8.23108 2.86672C8.16089 2.81094 8.066 2.78359 7.97111 2.79125Z" fill="black"/>
</svg>
